# xmcd CD database file
#
# Track frame offsets:
#	150
#	17850
#	34034
#	55034
#	68590
#	87789
#	106086
#	115379
#	137529
#	150117
#	166556
#
# Disc length: 2428 seconds
#
# Revision: 0
# Processed by: cddbd v1.5.2PL0 Copyright (c) Steve Scherf et al.
# Submitted via: CDex 1.70beta2
#
DISCID=72097a0b
DTITLE=Thorbjørn Risager and Emil Balsgaard - When Shadows Fall
DYEAR=1900
DGENRE=Blues
TTITLE0=Sin City
TTITLE1=Honest Pappas
TTITLE2=Two Lovers
TTITLE3=Top of the World
TTITLE4=Take It Off
TTITLE5=Lay My Burden Down
TTITLE6=The Hustle Is On
TTITLE7=Warm Beer and Cold Women
TTITLE8=Shut Your Mouth
TTITLE9=Simple Song
TTITLE10=Train
EXTD=
EXTT0=
EXTT1=
EXTT2=
EXTT3=
EXTT4=
EXTT5=
EXTT6=
EXTT7=
EXTT8=
EXTT9=
EXTT10=
PLAYORDER=
